# xmcd
#
# Track frame offsets:
#	150
#	17047
#	31018
#	47018
#	61118
#	76187
#	93524
#	108817
#	128087
#	141792
#
# Disc length: 2109 seconds
#
# Revision: 0
# Processed by: cddbd v1.4PL0 Copyright (c) Steve Scherf et al.
# Submitted via: dBpowerAMP V4.0
#
DISCID=6f083b0a
DTITLE=Paul Craver - Let The Music Play
DYEAR=2003
DGENRE=Swing
TTITLE0=Let The Music Play
TTITLE1=Only The Lonely
TTITLE2=Leave It Alone
TTITLE3=Can't Teach My Old Heart New Tricks
TTITLE4=Deed I Do
TTITLE5=Here Kitty Kitty
TTITLE6=Snap Your Fingers
TTITLE7=Don't Make Me Cry
TTITLE8=Listen To The Rhythm Of The Falling Rain
TTITLE9=Bad News Travels Fast
EXTD=Repete
EXTT0=
EXTT1=
EXTT2=
EXTT3=
EXTT4=
EXTT5=
EXTT6=
EXTT7=
EXTT8=
EXTT9=
PLAYORDER=
